<svg xmlns="http://www.w3.org/2000/svg" viewBox="0 0 24 24" fill="currentColor" fill-rule="evenodd">
  <title>AI Panel</title>
  <path d="M9.921 4.196H6.328A2.705 2.705 0 0 0 3.623 6.9v11.362a2.705 2.705 0 0 0 2.705 2.705h11.363a2.705 2.705 0 0 0 2.705-2.705v-4.756l1.623-1.113v5.87a4.329 4.329 0 0 1-4.328 4.328H6.328A4.329 4.329 0 0 1 2 18.263V6.901a4.328 4.328 0 0 1 4.328-4.329h4.545l-.952 1.624z" />
  <path d="M17.82 0c.145 0 .268.104.299.246a7 7 0 0 0 1.9 3.484 7 7 0 0 0 3.485 1.901c.142.031.246.154.246.3a.308.308 0 0 1-.246.298A7 7 0 0 0 20.02 8.13a7 7 0 0 0-1.912 3.535.297.297 0 0 1-.288.238.297.297 0 0 1-.288-.238A7 7 0 0 0 15.62 8.13a7 7 0 0 0-3.535-1.912.297.297 0 0 1-.238-.288c0-.14.1-.26.238-.288A7 7 0 0 0 15.62 3.73 7.001 7.001 0 0 0 17.521.246.308.308 0 0 1 17.82 0z" />
</svg>
